<svg id="e986a28c-e9e8-4fc5-b37d-d20bcaaffd4b" xmlns="http://www.w3.org/2000/svg" viewBox="0 0 377.48 398.15"><defs><style>.cls-1{fill:#a04040;}.cls-2{fill:#f66;}</style></defs><title>o</title><path class="cls-1" d="M109.39,44.3q42.39-20.05,92.67-13.22t92.67,38.39A230.05,230.05,0,0,1,362,148.64a214.28,214.28,0,0,1,25,100q.07,52.4-24.59,93.28t-67.08,60.89q-42.36,20-92.57,13.23T110,377.7a229.78,229.78,0,0,1-67.29-79.19,214.18,214.18,0,0,1-24.93-100q-.08-52.41,24.58-93.27T109.39,44.3ZM89.33,276.63A163,163,0,0,0,137,332.73q30.09,22.33,65.64,27.17t65.56-9.38a109.22,109.22,0,0,0,47.48-43.18q17.49-28.93,17.41-66a151.68,151.68,0,0,0-17.67-70.81,163,163,0,0,0-47.67-56.09Q237.69,92,202.12,87.21T136.55,96.6a108.8,108.8,0,0,0-47.48,43.13q-17.47,29-17.4,66.05a151.56,151.56,0,0,0,17.66,70.85" transform="translate(-17.82 -19.66)"/><path class="cls-2" d="M117.75,34.62q42.38-20.05,92.67-13.22t92.66,38.39A230.05,230.05,0,0,1,370.33,139a214,214,0,0,1,25,100q.07,52.39-24.58,93.28t-67.08,60.89q-42.36,20-92.57,13.23T118.39,368a229.86,229.86,0,0,1-67.28-79.19,214.19,214.19,0,0,1-24.94-100q-.06-52.41,24.59-93.27T117.75,34.62ZM97.69,267a162.83,162.83,0,0,0,47.67,56.1q30.07,22.33,65.63,27.17t65.57-9.38A109.27,109.27,0,0,0,324,297.66q17.47-28.93,17.4-66.05a151.56,151.56,0,0,0-17.67-70.81,162.88,162.88,0,0,0-47.66-56.09q-30.06-22.38-65.64-27.18t-65.56,9.39a108.75,108.75,0,0,0-47.48,43.13Q79.94,159,80,196.1A151.57,151.57,0,0,0,97.69,267" transform="translate(-17.82 -19.66)"/></svg>